<svg xmlns="http://www.w3.org/2000/svg" xmlns:xlink="http://www.w3.org/1999/xlink" version="1.1" x="0px" y="0px" viewBox="0 0 101 91" enable-background="new 0 0 101 91" xml:space="preserve"><path d="M100.43,4.166c0.227-1.094-0.544-4.521-2.123-4.037c-3.914,1.2-10.452,9.322-10.452,9.322L56.779,31.144  c-1.692,0.74-1.813,2.106-1.813,2.106c1.565,7.57-7.459,16.361-7.459,16.361c-1.493,1.098-8.347,5.439-10.719,6.938  c-0.59-0.211-1.241-0.213-1.84,0c-0.64-0.443-1.447-0.508-2.061-0.096c-0.635,0.428-0.876,1.24-0.671,2.025l-1.205,0.928  c-0.705-0.578-1.597-0.729-2.24-0.297c-0.573,0.387-0.796,1.137-0.642,1.916c-3.719,1.529-9.02,4.947-16.746,8.254  C0.104,74.105,0.533,90.605,0.533,90.605s16.522,2.73,22.57-7.943c2.754-4.861,7.411-10.375,9.871-14.77  c0.568,0.25,1.178,0.246,1.648-0.07c0.768-0.516,0.905-1.674,0.363-2.689l0.665-0.512c5.469,3.916,3.299,9.092,3.299,9.092  c0.008,0.307,0.069,0.461,0.163,0.516c-0.011,0.119,0.03,0.236,0.153,0.311c0.341,0.203,0.692-0.094,0.983-0.244  c0.276-0.145,0.564-0.273,0.874-0.33c0.284-0.053,0.647-0.045,0.774,0.26c0.297,0.707-0.571,1.197-1.062,1.432  c-0.285,0.137-1.104,0.57-0.52,0.887c0.495,0.268,1.254-0.283,1.639-0.545c0.324-0.221,0.639-0.504,0.79-0.875  c0.125-0.309,0.152-0.688,0.049-1.004c-0.424-1.297-1.856-0.961-2.726-0.615c0.012-0.016,0.018-0.025,0.018-0.025  c1.657-3.947-0.836-7.203-2.802-9.006c0.285-0.018,0.563-0.102,0.809-0.268c0.638-0.426,0.878-1.242,0.67-2.029  c0.559-0.59,0.81-1.383,0.728-2.158c2.664-2.008,7.15-5.289,10.822-7.479c5.614-3.348,9.286-16.991,9.286-16.991l31.576-23.421  c2.762-2.224,7.538-4.042,7.538-4.042C100.051,6.81,100.43,4.166,100.43,4.166z M33.804,66.049  c-0.591,0.453-1.575,0.164-2.199-0.648l-1.819-2.369c-0.624-0.811-0.649-1.838-0.059-2.291s1.574-0.164,2.199,0.648l1.818,2.369  C34.368,64.568,34.395,65.596,33.804,66.049z M37.254,62.303c-0.592,0.455-1.474,0.299-1.97-0.35l-1.449-1.887  c-0.498-0.645-0.421-1.539,0.169-1.992c0.591-0.453,1.473-0.297,1.97,0.35l1.45,1.887C37.92,60.957,37.844,61.85,37.254,62.303z"></path></svg>