<svg xmlns="http://www.w3.org/2000/svg" xmlns:xlink="http://www.w3.org/1999/xlink" version="1.1" x="0px" y="0px" viewBox="0 0 100.567 220.246" enable-background="new 0 0 100.567 220.246" xml:space="preserve"><path d="M99.383,21.042c-2.666-3.167-11.167-7.333-11.5-10s-9.333-10.667-17.833-11s-15.001,1.33-17.167,4.165  c0,0-3.666,0.667-9.5,1s-14.834,8.666-14.834,14.333s-3.334,11.667,0,10.833s7.666-3.5,9.5-2.333s6.334,5.333,8.834,4.333  c0,0,3.5,2.667,1.833,3.5s-7.315,1.667-8.741,0s-9.426-1.333-15.426,4.167S-1.116,62.207,0.05,80.874s2.833,41.501,9,48.834  s7.999,10.167,7.833,11.667s-0.833,9.333-3.333,15.333s-5.667,8-5.667,12.667s0.834,6.166-0.333,15s-4.501,18.334-5.167,21.667  s-1.166,7.834,4.834,7.667s11.167-3.167,14.5-3.167s9.833-0.667,9.833-0.667s-2.167,1.334-3,5.167s0.167,5.167,4.667,5.167  s16.333-0.333,21.333,0s8.834-1.667,14.667-3.167s6.5-4.667,2.833-5.167s-12.167,1.334-16.667-3.166s-7.333-8.501-7.333-12.334  s1.167-13.499,2.667-19.666s7.167-15.334,6-22.167s-3.5-7.833-3.5-10.5s3.166-7.333,1.666-8.666s-5.666-5-5.666-8.5  s-1.167-14-1.167-15.667s2.333-5.609,4.5-6.888s7.834-8.112,9.667-9.946s3.999-1.833,5.166-0.5s2.167,2.833,2.167,5.5  s0.499,3.725,0.333,4.946s3.001,1.721,5.334-1.779s2.667-8.5,1.5-11.667s-2.167-6-2.667-8.667s-0.167-3.833-2.5-3.833  s-12.666-6-12.666-6.833s3.501-2.333,3.667-3s1.666-4.167,0.833-5.167s1.167-3,1.167-5s-1.696-6.355,3.5-4.5  c4.664,1.666,9.166-6.833,10.166-8.5s7.667-6.167,8-7.833s4.498-10.001,3.166-0.167c-0.45,3.324,2.834,8,4.667,7.333  s5.333-7.667,5.333-12S102.049,24.209,99.383,21.042z M41.382,158.042c-0.5,3-4.333,8.166-4.5,13.833s-0.168,14.168-0.334,19.334  s-2.793,8.333-2.793,8.333s-11.041,1.667-11.707-1s-5.166-5.167-4.666-11.667s0.499-15.667,2.666-20.5s4.834-9.666,5.334-13.166  s0.666-8.834,0.666-8.834s5,5.833,9.5,8.5S41.882,155.042,41.382,158.042z M85.647,19.977c-0.899-0.53-1.951-1.012-3.126-1.438  C83.536,18.738,84.625,19.16,85.647,19.977z"></path></svg>