<svg xmlns="http://www.w3.org/2000/svg" xmlns:xlink="http://www.w3.org/1999/xlink" version="1.1" x="0px" y="0px" viewBox="0 0 100 125" enable-background="new 0 0 100 100" xml:space="preserve"><path d="M74.711,28.282c-8.659,0-16.041,5.493-18.898,13.169c-4.337-1.896-8.009-1.203-10.478,0.084  c-2.835-7.72-10.238-13.253-18.929-13.253c-11.127,0-20.18,9.053-20.18,20.18c0,11.127,9.053,20.181,20.18,20.181  s20.18-9.054,20.18-20.181c0-0.976-0.093-1.928-0.228-2.867c1.219-0.911,4.129-2.375,8.434-0.21c-0.155,1.006-0.26,2.028-0.26,3.077  c0,11.127,9.053,20.181,20.18,20.181c11.128,0,20.181-9.054,20.181-20.181C94.892,37.334,85.839,28.282,74.711,28.282z   M26.405,64.643c-8.921,0-16.18-7.259-16.18-16.181c0-8.921,7.258-16.18,16.18-16.18s16.18,7.258,16.18,16.18  C42.585,57.384,35.327,64.643,26.405,64.643z M74.711,64.643c-8.922,0-16.18-7.259-16.18-16.181c0-8.921,7.258-16.18,16.18-16.18  s16.181,7.258,16.181,16.18C90.892,57.384,83.633,64.643,74.711,64.643z"/><text x="0" y="115" fill="#000000" font-size="5px" font-weight="bold" font-family="'Helvetica Neue', Helvetica, Arial-Unicode, Arial, Sans-serif">Created by Catherine Please</text><text x="0" y="120" fill="#000000" font-size="5px" font-weight="bold" font-family="'Helvetica Neue', Helvetica, Arial-Unicode, Arial, Sans-serif">from the Noun Project</text></svg>