<svg xmlns="http://www.w3.org/2000/svg" xmlns:xlink="http://www.w3.org/1999/xlink" version="1.1" x="0px" y="0px" viewBox="0 0 100 125" enable-background="new 0 0 100 100" xml:space="preserve"><path d="M90.7,88.3c-0.1-0.1-0.2-0.1-0.4-0.3c-0.5-0.3-1.2-0.7-2.3-1.4c-3-1.7-8.1-4.7-15.1-8.8c-0.6-4.4-3.9-30.8-6.5-44.5  c0.6-1.7,3.3-10.1,5.7-22.6c0.1-0.5-0.1-1-0.6-1.3c-0.2-0.1-0.4-0.2-0.7-0.2c-0.3,0-0.5,0.1-0.7,0.2L49.1,24.5  c-0.2,0.1-0.3,0.3-0.4,0.5C48.6,25.4,34.9,57.3,27.3,76L9.4,84.5c-0.3,0.2-0.6,0.4-0.7,0.8c-0.1,0.3-0.1,0.7,0.1,1  c0.6,1,2.9,2,6.6,2.8c7,1.6,18.4,2.7,33.9,3.3c6.3,0.2,12.1,0.3,17.1,0.3c17.6,0,22.6-1.4,24-2.1c0.4-0.1,0.7-0.5,0.9-0.9  C91.4,89.4,91.5,88.8,90.7,88.3z"/><text x="0" y="115" fill="#000000" font-size="5px" font-weight="bold" font-family="'Helvetica Neue', Helvetica, Arial-Unicode, Arial, Sans-serif">Created by Xènia Martínez Ribot</text><text x="0" y="120" fill="#000000" font-size="5px" font-weight="bold" font-family="'Helvetica Neue', Helvetica, Arial-Unicode, Arial, Sans-serif">from the Noun Project</text></svg>