<svg xmlns="http://www.w3.org/2000/svg" xmlns:xlink="http://www.w3.org/1999/xlink" version="1.1" x="0px" y="0px" viewBox="0 0 100 125" enable-background="new 0 0 100 100" xml:space="preserve"><g><path d="M89.001,17.667L82.334,11c-1.335-1.333-3.333-1.333-4.668,0L11,77.666c-1.333,1.335-1.333,3.333,0,4.668l6.667,6.667   C18.334,89.668,19.001,90,20,90c1,0,1.667-0.332,2.334-0.999l66.667-66.667C90.332,21,90.332,19.001,89.001,17.667z M73.333,28.666   l-1.998-1.999L80,18.002L81.999,20L73.333,28.666z M20,81.999L18.002,80l48.665-48.665l1.998,1.999L20,81.999z"/><path d="M60,56.667c-1.998,0-3.333,1.335-3.333,3.333v6.667C56.667,68.665,58.002,70,60,70c1.999,0,3.333-1.335,3.333-3.333V60   C63.333,58.002,61.999,56.667,60,56.667z"/><path d="M60,23.334c1.999,0,3.333-1.333,3.333-3.333v-6.667c0-2-1.334-3.333-3.333-3.333c-1.998,0-3.333,1.333-3.333,3.333V20   C56.667,22.001,58.002,23.334,60,23.334z"/><path d="M33.334,43.333H40c2,0,3.333-1.333,3.333-3.333S42,36.667,40,36.667h-6.667C31.333,36.667,30,38,30,40   S31.333,43.333,33.334,43.333z"/><path d="M86.667,36.667H80c-1.999,0-3.333,1.333-3.333,3.333s1.334,3.333,3.333,3.333h6.667C88.665,43.333,90,42,90,40   S88.665,36.667,86.667,36.667z"/><path d="M43.667,28.334C44.333,29.001,45,29.333,46,29.333c0.667,0,1.667-0.332,2-1.333c1.333-1.333,1.333-3.333,0-4.666l-7-7   C39.667,15,37.667,15,36.333,16.333S35,19.667,36.333,21L43.667,28.334z"/><path d="M76.667,51.999c-1.335-1.331-3.334-1.331-4.668,0c-1.332,1.335-1.332,3.333,0,4.668l7.002,6.998   c0.667,0.668,1.331,1.003,2.334,1.003c0.664,0,1.666-0.335,2.33-1.003c1.335-1.331,1.335-3.333,0-4.664L76.667,51.999z"/></g><text x="0" y="115" fill="#000000" font-size="5px" font-weight="bold" font-family="'Helvetica Neue', Helvetica, Arial-Unicode, Arial, Sans-serif">Created by Giuditta Valentina Gentile</text><text x="0" y="120" fill="#000000" font-size="5px" font-weight="bold" font-family="'Helvetica Neue', Helvetica, Arial-Unicode, Arial, Sans-serif">from the Noun Project</text></svg>